# xmcd
#
# Track frame offsets:
#	150
#	19327
#	39875
#	55052
#	76497
#	92750
#	109665
#	125105
#	143935
#	159837
#	170982
#	185990
#
# Disc length: 2787 seconds
#
# Revision: 0
# Processed by: cddbd v1.4PL0 Copyright (c) Steve Scherf et al.
# Submitted via: dBpowerAMP V4.0
#
DISCID=a50ae10c
DTITLE=Redneck Mothers  - Brewin' Up A Storm 
DYEAR=1900
DGENRE=Country
TTITLE0=Swamp Creek ( Pete Kaiser ) 
TTITLE1=Copperhead Road ( Steve Earie )
TTITLE2=Baby Please Come Home ( Pete Kaiser ) 
TTITLE3=Road Of Love ( Pete Kaiser ) 
TTITLE4=Tent Fighter ( Pete Kaiser ) 
TTITLE5=Big Man ( Pete Kaiser ) 
TTITLE6=Work it Out ( Pete Kaiser ) 
TTITLE7=Four Walls ( Pete Kasier ) 
TTITLE8=Empty Heart ( Gary Laught ) 
TTITLE9=Lovin' All Through The Night ( Pete Kaiser ) 
TTITLE10=Ode On The Road ( Gary Laucht ) 
TTITLE11=Ride ( Grame  McCutcheon ) 
EXTD=Maxene Heard
EXTT0=
EXTT1=
EXTT2=
EXTT3=
EXTT4=
EXTT5=
EXTT6=
EXTT7=
EXTT8=
EXTT9=
EXTT10=
EXTT11=
PLAYORDER=
